<svg xmlns="http://www.w3.org/2000/svg" xmlns:xlink="http://www.w3.org/1999/xlink" viewBox="0 0 1041.7 252.2"><path d="M1040.8 128.2l-3.2-11-3-10.1s-9.5-30.9-10.7-35c-1.5-5-3.1-10.1-4.5-15l-.2-.8 21-25.3-9.9-31-106 .1-3.3 5.2-1.3-5.1H813l-2.6 5.9-1-5.9-107.6.1-1.9 7-.7-7-108.6.1-1 11.5-.3-11.5L480 .6l-.4 10.5L478.5.6 370.2.7l-.7 6.8-1.9-6.8h-52.2l-4.2 29.1-2.4-6-1.1-.1-9.1-23-51.6.1-1 5.6-2.7-5.6h-51L191 6l-3-5.2-50.6.1-5.9 22.7h-13.7l-2.6 9.9L91.3.9 42.1 1 0 131.7l44.7 41.4h48.8l7.7-29.1 3.8 4.2h13l21.7 24.9h50.1l1-4.7 3.5 4.7h50.5l.9-5.1 3.2 5.1h51l3.9-27.3 13.1 27.3h51.6l.6-6.3 2.2 6.3h107.4l.4-9.9 1.2 9.9h108.3l1-10.9.4 10.9h53.1l1.7-7.6.5 7.6h52.5l2.2-6.6.6 6.6h51.9l2.7-5.8.8 5.8h51.4l3.1-5.3.9 5.3h51l29.5-42-1.4-6.7h16.3L930 92.3l19.8 80.7h50l41.8-41.6-.8-3.2zm-506-31.9l.5-17.8h51.1l.4-5.9.8 23.8-52.8-.1z"/><g fill="#A6A9AA"><path d="M93.6 30.6l-6.8 23.7H117l6.3-23.4h13.8L143 8.1h39.8l-28.1 120.6h-42.9l12.9-51.2h-15.5l-6.7 24.9H74.7l6.9-24.9H66l-15.2 51.2H8.7L47.4 8.2h39L80 30.1zM237.7 8.3L214 129h-42.9L197.9 8.4zM295.7 89.8l3.6-24.9-15.6-.3-10.2 64.1h-43L253 8h39.8l-3.5 22.3 13.7.4-3.3 23.3 15.4.2L321.6 8l39.9-.1-14 120.7h-43l5.4-38.4zM467.5 103.7l-1.1 24.9H364L376.7 7.9l95-.1-.9 21.4h-55.9l-1.8 24.7 56.6.1-1 23.3-57.7.1-1.9 26.1zM1024.9 7.3l6.8 21.4H1004l.2.7c1.1 4.7 2.4 9.5 3.7 14.3 1.3 4.9 2.8 9.8 4.2 14.9 1.5 5 3 10.2 4.6 15.3 1.6 5.2 3.2 10.3 4.7 15.5 1 3.2 1.9 6.3 2.9 9.5s2 6.5 3 9.7l3 9.9c1 3.3 1.9 6.6 2.9 9.9h-43.3l-27.2-99.7h-27.8l-5.5-21.4h95.5zM925.2 53.1l5.9 24h-57.9l10.7 51.3-43.2.1-22.1-121 95.4-.1 5.3 21.4h-56.2l5.1 24.3zM759.1 89.5l5.3 39h-43.2L707.9 7.6l95.3-.1 20.9 121h-43.2l-5.6-39h-16.2zm28-47.5l-2.4-15.4h-18.9l1.7 14.1-14.8-.1-1.9-13.9h-18.3l1.9 15.3h16.8l.8 5.6h-8.4l3.1 23.7h10.1l-.8-8 15-.1 1.3 8.1h10.3L779 47.8h-8.4l-.7-5.7 17.2-.1M684.2 65.9h14.2l6.3 62.6h-43.1l-3.9-51-16-.4 3.3 51.4h-43.1L597.4 7.7l95.2-.1 4.5 44.8h-14.2l1.3 13.5zm-28.1-12L654.2 29h-15.5l1.6 24.9h15.8M527.5 29.1h55.2l-.6-21.4-95.1.1-4.1 120.8h102.6l-.7-24.9h-58.6z"/></g><g fill="#333"><path d="M14.3 128.7c-3.1 0-3.8 1.8-1.6 3.9l30.5 29.3c2.2 2.1 6.6 3.9 9.7 3.9h26.9c3.1 0 3.9-1.9 1.8-4.1l-27-28.8c-2.1-2.3-6.4-4.1-9.5-4.1l-30.8-.1zM117.5 128.7c-3.1 0-4 1.9-2 4.3l23.8 28.4c2 2.4 6.1 4.3 9.2 4.3h28.2c3.1 0 4.1-2 2.3-4.5l-20.9-28.1c-1.9-2.5-5.9-4.5-9-4.5l-31.6.1z"/><path d="M80.3 102.4c-3.1 0-4 1.9-1.9 4.2l26.5 29.9c2.1 2.3 5.8 4.1 8.3 4 2.5-.1 3.1-2.3 1.4-4.8l-1.8-2.6c-1.8-2.5-2.6-7-1.7-10l.5-1.9c.8-3-.1-7.4-2-9.8l-3.6-4.5c-1.9-2.4-6-4.4-9.1-4.4l-16.6-.1zM176.7 129c-3.1 0-4.1 2-2.3 4.5l20.4 27.7c1.8 2.5 5.9 4.5 9 4.5h27.8c3.1 0 4.3-2.1 2.6-4.8L217 133.7c-1.6-2.6-5.5-4.8-8.6-4.8l-31.7.1zM236.1 128.7c-3.1 0-4.3 2.2-2.7 4.8l16.5 27.1c1.6 2.6 5.5 4.8 8.6 4.8h27.3c3.1 0 4.5-2.3 3.1-5.1l-13-26.6c-1.4-2.8-5-5.1-8.1-5.1l-31.7.1zM310.1 128.6c-3.1 0-4.6 2.3-3.3 5.1l12.4 26.9c1.3 2.8 4.9 5.1 8 5.1h28.2c3.1 0 4.8-2.4 3.7-5.3l-9.7-26.6c-1.1-2.9-4.5-5.3-7.6-5.3l-31.7.1zM369.6 128.6c-3.1 0-4.8 2.4-3.7 5.3l9.2 25.7c1 2.9 4.4 5.3 7.5 5.3H466c3.1 0 5.3-2.5 4.8-5.6l-3.6-25.2c-.4-3.1-3.3-5.6-6.4-5.6l-91.2.1zM488.5 128.6c-3.1 0-5.4 2.5-5 5.6l2.8 26c.3 3.1 3.1 5.6 6.2 5.6h83c3.1 0 5.9-2.5 6.3-5.6l3.1-26c.4-3.1-1.9-5.6-5-5.6h-91.4zM607.7 128.5c-3.1 0-5.9 2.5-6.3 5.6l-3.2 25.6c-.4 3.1 1.8 5.6 4.9 5.6h27.8c3.1 0 6.2-2.5 6.9-5.5l6.2-25.9c.7-3-1.2-5.5-4.3-5.5l-32 .1zM667.3 128.5c-3.1 0-6.2 2.5-6.9 5.5l-6 25.4c-.7 3 1.2 5.5 4.3 5.5h27.8c3.1 0 6.5-2.4 7.5-5.3l9-25.8c1-2.9-.7-5.3-3.8-5.3h-31.9zM726.9 128.5c-3.1 0-6.5 2.4-7.5 5.3l-9.3 26.2c-1 2.9.7 5.3 3.7 5.3h27.7c3.1 0 6.7-2.3 8-5.1l12.4-26.7c1.3-2.8-.1-5.1-3.2-5.1l-31.8.1zM786.6 128.5c-3.1 0-6.7 2.3-8.1 5.1l-13 26.7c-1.4 2.8.1 5.1 3.2 5.1h28.6c3.1 0 6.9-2.2 8.4-4.9l15.6-27.1c1.6-2.7.3-4.9-2.8-4.9h-31.9zM846.3 128.5c-3.1 0-7 2.2-8.6 4.8l-16.6 27.3c-1.6 2.6-.4 4.8 2.7 4.8H852c3.1 0 7.1-2.1 8.9-4.6l19.7-27.7c1.8-2.5.7-4.6-2.4-4.6h-31.9zM995.5 128.4c-3.1 0-7.3 1.9-9.4 4.2l-24.8 28.1c-2.1 2.3-1.2 4.2 1.9 4.2h26.9c3.1 0 7.4-1.8 9.7-3.9l29.4-28.7c2.2-2.2 1.5-3.9-1.6-3.9h-32.1z"/></g><g fill="#E6E6E6"><path d="M14 128.1c-3.6 0-5.9.4-5.2.9.7.5 4.2.9 7.8.9H43c3.6 0 7.1-.5 7.8-1s-1.7-1-5.2-1l-31.6.2zM78.1 101.7c-2.4 0-3.9.4-3.5.9.5.5 2.8.9 5.2.9h17.6c2.4 0 4.7-.5 5.2-1 .5-.6-1.1-1-3.5-1l-21 .2zM111.1 76.8c-1.3 0-2.2.4-1.9.9.3.5 1.6.9 2.9.9h9.8c1.3 0 2.6-.5 2.9-1 .3-.6-.6-1-1.9-1l-11.8.2zM67.7 76.8c-1.3 0-2.2.4-1.9.9.3.5 1.6.9 2.9.9h9.8c1.3 0 2.6-.5 2.9-1 .3-.6-.6-1-1.9-1l-11.8.2zM285.7 63.2c-1.3 0-2.2.4-1.9.9.3.5 1.6.9 2.9.9h9.8c1.3 0 2.6-.5 2.9-1 .3-.6-.6-1-1.9-1l-11.8.2zM640.5 28.3c-1.3 0-2.2.4-1.9.9.3.5 1.6.9 2.9.9h9.8c1.3 0 2.6-.5 2.9-1 .3-.6-.6-1-1.9-1l-11.8.2zM643.2 76.8c-1.3 0-2.2.4-1.9.9.3.5 1.6.9 2.9.9h9.8c1.3 0 2.6-.5 2.9-1 .3-.6-.6-1-1.9-1l-11.8.2zM761.5 88.8c-1.3 0-2.2.4-1.9.9.3.5 1.6.9 2.9.9h9.8c1.3 0 2.6-.5 2.9-1 .3-.6-.6-1-1.9-1l-11.8.2zM768.7 25.8c-1.6 0-2.6.4-2.3.9.3.5 1.8.9 3.4.9h11.5c1.5 0 3.1-.5 3.4-1 .3-.6-.7-1-2.3-1l-13.7.2zM735.2 25.8c-1.6 0-2.6.4-2.3.9.3.5 1.8.9 3.4.9h11.5c1.5 0 3.1-.5 3.4-1 .3-.6-.7-1-2.3-1l-13.7.2zM754.7 39.7c-1.3 0-2.1.4-1.8.9.2.5 1.5.9 2.8.9h9.4c1.3 0 2.5-.5 2.7-1 .2-.6-.6-1-1.9-1l-11.2.2zM744.8 46.2c-.7 0-1.2.4-1 .9.1.5.8.9 1.5.9h5.2c.7 0 1.4-.5 1.5-1 .1-.6-.3-1-1-1l-6.2.2zM771.1 46.2c-.7 0-1.2.4-1 .9.1.5.8.9 1.5.9h5.2c.7 0 1.4-.5 1.5-1 .1-.6-.3-1-1-1l-6.2.2zM685.4 52.1c-1.2 0-1.9.4-1.7.9.2.5 1.4.9 2.5.9h8.6c1.2 0 2.3-.5 2.5-1 .2-.6-.5-1-1.7-1l-10.2.2zM297.6 89.8c-1.1 0-1.8.4-1.6.9.2.5 1.3.9 2.4.9h8c1.1 0 2.1-.5 2.4-1 .2-.6-.5-1-1.6-1l-9.6.2zM117 128.1c-3.6 0-5.9.4-5.2.9.7.5 4.2.9 7.8.9H146c3.6 0 7.1-.5 7.8-1 .7-.6-1.7-1-5.2-1l-31.6.2zM176.4 128.1c-3.6 0-5.9.4-5.2.9.7.5 4.2.9 7.8.9h26.5c3.6 0 7.1-.5 7.8-1s-1.7-1-5.2-1l-31.7.2zM235.8 128.1c-3.6 0-5.9.4-5.2.9.7.5 4.2.9 7.8.9h26.5c3.6 0 7.1-.5 7.8-1 .7-.6-1.7-1-5.2-1l-31.7.2zM310.8 128.1c-3.6 0-5.9.4-5.2.9.7.5 4.2.9 7.8.9h26.5c3.6 0 7.1-.5 7.8-1s-1.7-1-5.2-1l-31.7.2zM417.8 75.8c-4.9 0-8.2.4-7.2.9 1 .5 5.8.9 10.7.9h36.6c4.9 0 9.8-.5 10.7-1 1-.6-2.3-1-7.2-1l-43.6.2zM423.3 28.3c-4.6 0-7.7.4-6.7.9.9.5 5.4.9 10 .9h34.2c4.6 0 9.1-.5 10-1 .9-.6-2.2-1-6.8-1l-40.7.2zM534.8 28.3c-4.6 0-7.7.4-6.7.9.9.5 5.4.9 10 .9h34.2c4.6 0 9.1-.5 10-1 .9-.6-2.2-1-6.8-1l-40.7.2zM938.3 28.3c-2.3 0-3.9.4-3.4.9s2.7.9 5.1.9h17.2c2.3 0 4.6-.5 5-1 .5-.6-1.1-1-3.4-1l-20.5.2zM1007.1 28.3c-2.3 0-3.9.4-3.4.9s2.7.9 5.1.9h17.2c2.3 0 4.6-.5 5-1 .5-.6-1.1-1-3.4-1l-20.5.2zM870.8 28.3c-4.6 0-7.7.4-6.7.9.9.5 5.4.9 10 .9h34.2c4.6 0 9.1-.5 10-1 .9-.6-2.2-1-6.8-1l-40.7.2zM881.8 76.8c-4.6 0-7.7.4-6.7.9.9.5 5.4.9 10 .9h34.2c4.6 0 9.1-.5 10-1 .9-.6-2.2-1-6.8-1l-40.7.2zM608.4 128.1c-3.6 0-5.9.4-5.2.9.7.5 4.2.9 7.8.9h26.5c3.6 0 7.1-.5 7.8-1 .7-.6-1.7-1-5.2-1l-31.7.2zM667.3 128.1c-3.6 0-5.9.4-5.2.9.7.5 4.2.9 7.8.9h26.5c3.6 0 7.1-.5 7.8-1 .7-.6-1.7-1-5.2-1l-31.7.2zM726.2 128.1c-3.6 0-5.9.4-5.2.9.7.5 4.2.9 7.8.9h26.5c3.6 0 7.1-.5 7.8-1 .7-.6-1.7-1-5.2-1l-31.7.2zM787 128.1c-3.6 0-5.9.4-5.2.9.7.5 4.2.9 7.8.9h26.5c3.6 0 7.1-.5 7.8-1 .7-.6-1.7-1-5.2-1l-31.7.2zM846.7 128.1c-3.6 0-5.9.4-5.2.9.7.5 4.2.9 7.8.9h26.5c3.6 0 7.1-.5 7.8-1 .7-.6-1.7-1-5.2-1l-31.7.2zM996.1 128.1c-3.6 0-5.9.4-5.2.9.7.5 4.2.9 7.8.9h26.5c3.6 0 7.1-.5 7.8-1 .7-.6-1.7-1-5.2-1l-31.7.2zM377 128.1c-8.7 0-14.4.4-12.7.9 1.7.5 10.2.9 18.9.9h64.5c8.7 0 17.2-.5 18.9-1s-4.1-1-12.8-1l-76.8.2zM495.8 128.1c-8.7 0-14.4.4-12.7.9 1.7.5 10.2.9 18.9.9h64.5c8.7 0 17.2-.5 18.9-1s-4.1-1-12.8-1l-76.8.2z"/></g><g><path d="M815.6 252.2s2.2 0 3.3-1.6l16.3-27.2-11-12.8H213.7l-9.2 12.4 15.7 27.6c1.2 1.6 3.3 1.6 3.3 1.6"/><path d="M831.2 225.2v-.1c6.8 0 4.7-6.8 4.4-9.6l-17.8-77.3H222.2l-17.8 77.3c-.3 2.8-2.5 9.5 4.4 9.5v.2h622.4z"/><path fill="#1F434D" d="M812 245s2.2 0 3.3-1.6l13-25.7H211.5l12.1 25.8c1.2 1.6 3.3 1.6 3.3 1.6"/><path fill="#4CA1CC" d="M824 219.2v.2c6.8 0 4.7-6.3 4.4-9.1l-16-66.1H227.6l-16 66.2c-.3 2.8-2.5 9 4.4 9v-.2h608z"/><path fill="#78CDEF" d="M218.7 218c-2.8.1-4.9.6-4.7 1.1.2.6 2.7 1 5.5 1h599.9c2.8 0 5.3-.5 5.5-1.2.2-.7-1.9-1.1-4.7-1.1l-601.5.2z"/></g><g><defs><path id="a" d="M247.9 199.8l7-33.5H788l7 33.5z"/></defs><clipPath id="b"><use xlink:href="#a" overflow="visible"/></clipPath><g fill="#231F20" clip-path="url(#b)"><path d="M281.5 166.3h-24.9c-.3 0-.5 0-.8.1-.2.1-.4.1-.6.3-.2.1-.3.3-.4.5-.1.2-.2.4-.2.6l-6.4 30.6c-.1.3-.1.5 0 .7 0 .2.1.3.2.5.1.1.3.2.5.3.2.1.5.1.7.1h25.5c.3 0 .6 0 .8-.1l.6-.3c.2-.1.3-.3.4-.5.1-.2.2-.4.2-.7l.9-4.8c0-.3.1-.5 0-.7 0-.2-.1-.3-.2-.5-.1-.1-.3-.2-.5-.3s-.5-.1-.7-.1h-16.3c-.1 0-.1 0-.2-.1l-.1-.1v-.2l.9-4.7c0-.1 0-.2.1-.2s.1-.1.1-.1c.1 0 .1-.1.2-.1h13.8c.3 0 .6 0 .8-.1l.6-.3c.2-.1.3-.3.4-.5.1-.2.2-.4.2-.7l.9-4.5c0-.3.1-.5 0-.7 0-.2-.1-.3-.2-.5-.1-.1-.3-.2-.5-.3s-.5-.1-.7-.1h-13.7c-.1 0-.1 0-.2-.1l-.1-.1v-.2l.8-4c0-.1 0-.2.1-.2 0-.1.1-.1.1-.1.1 0 .1-.1.2-.1h16.1c.3 0 .5 0 .8-.1l.6-.3c.2-.1.3-.3.4-.5.1-.2.2-.4.2-.6l.9-4.6c0-.2.1-.5 0-.6 0-.2-.1-.3-.2-.5-.1-.1-.3-.2-.5-.3-.1-.2-.3-.2-.6-.2M295.6 192.1h-.2c-.1 0-.1 0-.2-.1 0 0-.1-.1-.1-.2v-.2l3-17.4c0-.1 0-.2.1-.2 0-.1.1-.1.1-.1s.1-.1.2-.1h8.4c.2 0 .4.1.6.1.2.1.3.1.5.2s.3.2.5.4l1 1 .4.4c.1.1.2.3.2.4 0 .2.1.3.1.5s0 .4-.1.6l-1.8 10.6c0 .2-.1.5-.2.6-.1.2-.1.4-.2.5-.1.2-.2.3-.4.4-.1.1-.3.3-.5.4l-1.3 1c-.2.2-.4.3-.6.4l-.6.3c-.2.1-.4.1-.6.1H295.6m14.9-25.4h-19.6c-.3 0-.5 0-.8.1-.2.1-.4.1-.6.3-.2.1-.3.3-.4.5-.1.2-.2.4-.2.6l-5.6 30.6c0 .3-.1.5 0 .7 0 .2.1.3.2.5.1.1.3.2.5.3.2.1.5.1.8.1H305c.7 0 1.3 0 1.8-.1s1-.2 1.5-.4.9-.4 1.4-.7c.5-.3.9-.6 1.5-1l4.1-3.2c.5-.4.9-.7 1.3-1.1.4-.4.6-.7.9-1.1l.6-1.2c.1-.4.3-.9.3-1.5l2.1-13.3c.1-.5.1-1 .1-1.4 0-.4-.1-.8-.2-1.2-.1-.4-.3-.7-.5-1.1-.2-.4-.5-.7-.9-1.1l-3.1-3.1c-.4-.4-.7-.7-1.1-1-.4-.3-.7-.5-1.2-.6-.4-.2-.9-.3-1.4-.4-.4-.2-1-.2-1.7-.2M357.3 166.3h-6.9c-.3 0-.5 0-.8.1-.2.1-.4.1-.6.3-.2.1-.3.3-.4.5-.1.2-.2.4-.2.6l-2.7 20.3c0 .2-.1.4-.1.6-.1.2-.1.4-.2.5-.1.2-.2.3-.3.4-.1.1-.3.3-.5.4l-1.3 1c-.2.2-.4.3-.6.4l-.6.3c-.2.1-.4.1-.6.1h-3.8c-.2 0-.4-.1-.6-.1-.2-.1-.3-.1-.5-.3-.2-.1-.3-.2-.5-.4l-1-1-.4-.4c-.1-.1-.2-.3-.2-.4-.1-.2-.1-.3-.1-.5v-.6l2.9-20.3v-.6c0-.2-.1-.3-.2-.5-.1-.1-.3-.2-.5-.3-.2-.1-.5-.1-.7-.1H329c-.3 0-.5 0-.8.1-.2.1-.4.1-.6.3-.2.1-.3.3-.4.5-.1.2-.2.4-.2.6l-3.3 21.8c-.1.5-.1 1-.1 1.5 0 .4.1.9.2 1.2.1.4.3.8.5 1.1.2.4.5.7.9 1.1l3.2 3.2c.4.4.8.7 1.1 1 .4.3.8.5 1.2.7.4.2.9.3 1.4.4.5.1 1.1.1 1.8.1h8.9c.7 0 1.3 0 1.8-.1s1-.2 1.5-.4.9-.4 1.4-.7c.5-.3.9-.6 1.4-1l4-3.2c.5-.4.9-.7 1.2-1.1.3-.4.6-.7.8-1.1.2-.4.4-.8.5-1.2.1-.4.2-.9.3-1.5l2.8-21.8v-.6c0-.2-.1-.3-.3-.5-.1-.1-.3-.2-.5-.3.1-.1-.1-.1-.4-.1M389.9 166.3h-14.1c-.7 0-1.2 0-1.8.1-.5.1-1 .2-1.5.4s-.9.4-1.3.6c-.4.3-.9.6-1.4 1l-3.9 3.1c-.5.4-.9.7-1.2 1.1-.3.4-.6.7-.8 1.1-.2.4-.4.8-.5 1.2-.1.4-.2.9-.3 1.4l-1.6 13.3c-.1.5-.1 1-.1 1.5 0 .4.1.9.2 1.2.1.4.3.8.6 1.1.3.4.6.7 1 1.1l3.3 3.2c.4.4.8.7 1.2 1 .4.3.8.5 1.2.7.4.2.9.3 1.4.4.5.1 1.1.1 1.8.1h14.5c.3 0 .6 0 .8-.1l.6-.3c.2-.1.3-.3.4-.5.1-.2.1-.4.2-.7l.5-4.8v-.7c-.1-.2-.1-.3-.3-.5-.1-.1-.3-.2-.5-.3-.2-.1-.5-.1-.8-.1h-12.2c-.2 0-.4-.1-.6-.2-.2-.1-.3-.2-.5-.3-.2-.1-.3-.2-.5-.4l-.9-.9-.4-.4c-.1-.1-.2-.3-.2-.4-.1-.2-.1-.3-.1-.5v-.6l1.2-10.6c0-.2.1-.4.1-.6.1-.2.1-.3.2-.5s.2-.3.3-.4c.1-.1.3-.3.5-.4l1.1-.8c.2-.2.4-.3.6-.4.2-.1.4-.2.5-.3s.4-.1.6-.1H389.1c.3 0 .5 0 .8-.1l.6-.3c.2-.1.3-.3.4-.5.1-.2.1-.4.2-.6l.5-4.6v-.6c-.1-.2-.1-.3-.3-.5-.1-.1-.3-.2-.5-.3-.3-.3-.6-.3-.9-.3M407.3 185.1h-.2l-.1-.1v-.1-.2l4.1-11.1s0-.1.1-.1l.1-.1h.4s.1 0 .1.1v.1l2.2 11.1v.2c0 .1 0 .1-.1.1l-.1.1h-6.5m10.2-18.8h-10.9c-.5 0-.9 0-1.3.1s-.6.2-.9.3c-.2.1-.4.3-.6.6-.2.2-.3.5-.5.9l-12 29.9c-.1.3-.1.5-.1.7 0 .2 0 .4.2.6.1.2.3.3.5.4.2.1.5.1.9.1h7c.3 0 .6 0 .8-.1l.6-.3c.2-.1.3-.3.5-.5.1-.2.3-.5.4-.9l1.9-5.1c0-.1.1-.2.1-.2 0-.1.1-.1.1-.1.1 0 .1-.1.2-.1h10.8c.1 0 .1 0 .2.1l.1.1c0 .1.1.1.1.2l1 5.1.3.9c.1.2.2.4.4.5.2.1.3.2.6.3s.5.1.8.1h7c.4 0 .6 0 .9-.1.2-.1.4-.2.5-.4.1-.2.2-.3.2-.6v-.7l-6.8-29.9c-.1-.4-.2-.6-.3-.9-.1-.2-.3-.4-.5-.6-.2-.1-.5-.2-.8-.3-.5-.1-1-.1-1.4-.1M461.7 166.3h-28.2c-.3 0-.5 0-.8.1-.2.1-.4.1-.5.3-.1.1-.3.3-.3.5-.1.2-.1.4-.1.6l-.3 4.6c0 .2 0 .5.1.6.1.2.2.3.3.5.1.1.3.2.5.3.2.1.5.1.8.1h8.7c.1 0 .1 0 .2.1l.1.1v.2l-1.5 24c0 .3 0 .5.1.7.1.2.2.3.3.5.1.1.3.2.5.3s.5.1.8.1h7.1c.3 0 .6 0 .8-.1l.6-.3c.2-.1.3-.3.3-.5.1-.2.1-.4.1-.7l1.3-24v-.2c0-.1.1-.1.1-.1s.1-.1.2-.1h8.8c.3 0 .5 0 .8-.1.2-.1.4-.2.5-.3.1-.1.3-.3.3-.5.1-.2.1-.4.1-.6l.2-4.6c0-.2 0-.5-.1-.6-.1-.2-.2-.3-.3-.5-.1-.1-.3-.2-.5-.3-.5-.1-.8-.1-1-.1M477.1 166.3h-6.9c-.3 0-.5 0-.8.1-.2.1-.4.1-.5.3-.1.1-.3.3-.3.5-.1.2-.1.4-.1.6l-1.3 30.6c0 .3 0 .5.1.7.1.2.2.3.3.5.1.1.3.2.5.3.2.1.5.1.8.1h7.1c.3 0 .6 0 .8-.1.2-.1.4-.2.5-.3.1-.1.3-.3.3-.5.1-.2.1-.4.1-.7l1-30.6c0-.2 0-.5-.1-.6-.1-.2-.2-.3-.3-.5-.1-.1-.3-.2-.5-.3-.1-.1-.4-.1-.7-.1M499.2 192.1h-.7c-.2 0-.4-.1-.6-.1-.2-.1-.3-.1-.5-.3-.2-.1-.3-.2-.5-.4l-1.1-1-.4-.4c-.1-.1-.2-.3-.3-.4-.1-.2-.1-.3-.1-.5v-.6l.2-10.6c0-.2 0-.4.1-.6 0-.2.1-.3.2-.5s.2-.3.3-.4c.1-.1.3-.3.5-.4l1.2-1c.2-.2.4-.3.5-.4.2-.1.3-.2.5-.2.2-.1.4-.1.6-.1H504.9c.2 0 .4.1.6.1.2.1.3.1.5.2s.3.2.5.4l1.2 1 .4.4c.1.1.2.3.3.4.1.2.1.3.1.5v.6l-.1 10.6c0 .2 0 .5-.1.6 0 .2-.1.4-.2.5-.1.2-.2.3-.3.4-.1.1-.3.3-.5.4l-1.2 1c-.2.2-.4.3-.5.4-.2.1-.3.2-.5.3s-.4.1-.6.1h-5.3m8-25.8h-10.7c-.7 0-1.2 0-1.8.1-.5.1-1 .2-1.4.4-.4.2-.9.4-1.3.6-.4.3-.8.6-1.3 1l-3.6 3.1c-.4.4-.8.7-1.1 1.1-.3.4-.5.7-.7 1.1-.2.4-.3.8-.4 1.2-.1.4-.1.9-.2 1.4l-.4 13.3c0 .5 0 1 .1 1.5.1.4.2.9.3 1.2.2.4.4.8.7 1.1.3.4.6.7 1.1 1.1l3.6 3.2c.4.4.9.7 1.3 1 .4.3.8.5 1.3.7.4.2.9.3 1.5.4.5.1 1.1.1 1.8.1h11c.7 0 1.3 0 1.8-.1s1-.2 1.5-.4c.4-.2.9-.4 1.3-.7.4-.3.8-.6 1.3-1l3.7-3.2c.4-.4.8-.7 1.1-1.1.3-.4.5-.7.7-1.1.2-.4.3-.8.4-1.2.1-.4.1-.9.1-1.5v-13.3c0-.5 0-1-.1-1.4-.1-.4-.2-.8-.4-1.2-.2-.4-.4-.7-.7-1.1-.3-.4-.6-.7-1.1-1.1l-3.5-3.1c-.4-.4-.8-.7-1.2-1-.4-.3-.8-.5-1.3-.6-.4-.2-.9-.3-1.4-.4-.8-.1-1.3-.1-2-.1M554.7 166.3h-6.6c-.3 0-.6 0-.8.1-.2.1-.4.1-.5.3-.1.1-.2.3-.3.5-.1.2-.1.4-.1.6l.3 15.7v.1s0 .1-.1.1c0 0-.1 0-.1.1h-.1-.1-.1s-.1 0-.1-.1 0 0-.1-.1l-10.5-15.9c-.2-.2-.3-.5-.5-.6-.2-.2-.4-.3-.6-.4-.2-.1-.4-.2-.7-.2-.3-.1-.6-.1-.9-.1h-6.7c-.3 0-.5 0-.7.1-.2.1-.4.1-.5.3-.1.1-.2.3-.3.5-.1.2-.1.4-.1.6l.1 30.6c0 .3 0 .5.1.7.1.2.2.3.3.5.1.1.3.2.5.3.2.1.5.1.8.1h6.7c.3 0 .6 0 .8-.1.2-.1.4-.2.5-.3.1-.1.2-.3.3-.5.1-.2.1-.4.1-.7l-.2-16.1v-.1s0-.1.1-.1.1 0 .1-.1H535s.1 0 .1.1l.1.1 10.6 16.3c.2.3.3.5.5.7.2.2.4.3.6.4.2.1.5.2.7.2s.6.1.9.1h6.8c.3 0 .5 0 .8-.1.2-.1.4-.2.5-.3.1-.1.2-.3.3-.5.1-.2.1-.4.1-.7l-.8-30.6c0-.2 0-.5-.1-.6-.1-.2-.2-.3-.3-.5-.1-.1-.3-.2-.5-.3-.1-.1-.3-.1-.6-.1M601.2 166.3h-24.9c-.3 0-.5 0-.7.1-.2.1-.4.1-.5.3-.1.1-.2.3-.3.5-.1.2-.1.4-.1.6l1.3 30.6c0 .3.1.5.1.7.1.2.2.3.3.5.1.1.3.2.6.3.2.1.5.1.8.1h25.5c.3 0 .5 0 .8-.1s.4-.2.5-.3c.1-.1.2-.3.3-.5.1-.2.1-.4.1-.7l-.3-4.8c0-.3-.1-.5-.1-.7-.1-.2-.2-.3-.4-.5-.2-.1-.3-.2-.6-.3s-.5-.1-.8-.1H586.4c-.1 0-.1 0-.2-.1l-.1-.1v-.2l-.2-4.7v-.2c0-.1 0-.1.1-.1 0 0 .1-.1.2-.1H600c.3 0 .5 0 .8-.1.2-.1.4-.2.5-.3.1-.1.2-.3.3-.5.1-.2.1-.4.1-.7l-.3-4.5c0-.3-.1-.5-.1-.7-.1-.2-.2-.3-.3-.5-.1-.1-.3-.2-.5-.3-.2-.1-.5-.1-.8-.1H586c-.1 0-.1 0-.2-.1l-.1-.1v-.2l-.2-4v-.2c0-.1 0-.1.1-.1 0 0 .1-.1.2-.1h16c.3 0 .5 0 .7-.1.2-.1.4-.2.5-.3.1-.1.2-.3.3-.5.1-.2.1-.4.1-.6l-.3-4.6c0-.2-.1-.5-.1-.6-.1-.2-.2-.3-.3-.5-.1-.1-.3-.2-.5-.3-.5-.2-.7-.2-1-.2M621.7 192.1h-.3c-.1 0-.1 0-.2-.1 0 0-.1-.1-.1-.2v-.2l-1.3-17.4v-.2c0-.1 0-.1.1-.1 0 0 .1-.1.2-.1h8.3c.2 0 .4.1.6.1.2.1.4.1.5.2.2.1.4.2.5.4l1.2 1c.2.2.4.3.5.4.1.1.2.3.3.4.1.2.2.3.2.5s.1.4.1.6l.9 10.6v.6c0 .2-.1.4-.1.5-.1.2-.1.3-.3.4-.1.1-.2.3-.4.4l-1.1 1c-.2.2-.3.3-.5.4-.2.1-.3.2-.5.3-.2.1-.4.1-.6.1h-8m8.5-25.4h-19.6c-.3 0-.5 0-.7.1-.2.1-.4.1-.5.3-.1.1-.2.3-.3.5-.1.2-.1.4-.1.6l2.1 30.6c0 .3.1.5.2.7.1.2.2.3.4.5.2.1.3.2.6.3.2.1.5.1.8.1h20.1c.7 0 1.3 0 1.8-.1s1-.2 1.4-.4c.4-.2.8-.4 1.2-.7.4-.3.8-.6 1.2-1l3.3-3.2c.4-.4.7-.7 1-1.1.3-.4.5-.7.6-1.1l.3-1.2v-1.5l-1.3-13.3c-.1-.5-.1-1-.2-1.4-.1-.4-.3-.8-.5-1.2-.2-.4-.5-.7-.8-1.1-.3-.4-.7-.7-1.2-1.1l-3.8-3.1c-.5-.4-.9-.7-1.3-1-.4-.3-.9-.5-1.3-.6-.5-.2-.9-.3-1.5-.4-.6-.2-1.2-.2-1.9-.2M656.5 166.3h-6.9c-.3 0-.5 0-.7.1-.2.1-.4.1-.5.3-.1.1-.2.3-.3.5-.1.2-.1.4 0 .6l3 30.6c0 .3.1.5.2.7.1.2.2.3.4.5.2.1.3.2.6.3.2.1.5.1.8.1h7.1c.3 0 .5 0 .8-.1s.4-.2.5-.3c.1-.1.2-.3.3-.5.1-.2.1-.4 0-.7l-3.3-30.6c0-.2-.1-.5-.2-.6-.1-.2-.2-.3-.4-.5-.2-.1-.3-.2-.6-.3-.2-.1-.5-.1-.8-.1M693.3 166.3h-28.2c-.3 0-.5 0-.7.1-.2.1-.4.1-.5.3-.1.1-.2.3-.3.5 0 .2-.1.4 0 .6l.5 4.6c0 .2.1.5.2.6.1.2.2.3.4.5.2.1.3.2.6.3.2.1.5.1.8.1h8.8c.1 0 .1 0 .2.1l.1.1c0 .1 0 .1.1.2l2.9 24c0 .3.1.5.2.7.1.2.2.3.4.5.2.1.3.2.6.3.2.1.5.1.8.1h7.1c.3 0 .5 0 .8-.1.2-.1.4-.2.5-.3.1-.1.2-.3.3-.5 0-.2.1-.4 0-.7l-3.1-24v-.2c0-.1 0-.1.1-.1 0 0 .1-.1.2-.1h8.7c.3 0 .5 0 .7-.1.2-.1.4-.2.5-.3.1-.1.2-.3.3-.5v-.6l-.6-4.6c0-.2-.1-.5-.2-.6-.1-.2-.2-.3-.4-.5-.2-.1-.3-.2-.6-.3-.7-.1-.9-.1-1.2-.1M708.7 166.3h-6.9c-.3 0-.5 0-.7.1-.2.1-.4.1-.5.3-.1.1-.2.3-.2.5v.6l4.3 30.6c0 .3.1.5.2.7.1.2.2.3.4.5l.6.3c.2.1.5.1.8.1h7.1c.3 0 .5 0 .8-.1.2-.1.4-.2.5-.3.1-.1.2-.3.3-.5v-.7l-4.5-30.6c0-.2-.1-.5-.2-.6-.1-.2-.2-.3-.4-.5-.2-.1-.3-.2-.6-.3-.4-.1-.7-.1-1-.1M735.6 192.1h-.7c-.2 0-.4-.1-.6-.1s-.4-.1-.6-.3c-.2-.1-.4-.2-.6-.4l-1.3-1c-.2-.2-.4-.3-.5-.4l-.4-.4c-.1-.2-.2-.3-.2-.5-.1-.2-.1-.4-.1-.6l-1.7-10.6c0-.2-.1-.4-.1-.6 0-.2 0-.3.1-.5 0-.2.1-.3.2-.4.1-.1.2-.3.4-.4l1-1c.2-.2.3-.3.5-.4.2-.1.3-.2.5-.2.2-.1.3-.1.6-.1H737.9c.2 0 .4.1.6.1s.4.1.6.2c.2.1.4.2.6.4l1.3 1c.2.2.4.3.5.4l.4.4c.1.2.2.3.2.5.1.2.1.4.2.6l1.8 10.6c0 .2.1.5.1.6 0 .2 0 .4-.1.5 0 .2-.1.3-.2.4-.1.1-.2.3-.4.4l-1 1c-.2.2-.3.3-.5.4-.2.1-.3.2-.5.3-.2.1-.4.1-.6.1h-5.3m3.3-25.8h-10.7c-.7 0-1.2 0-1.7.1s-1 .2-1.4.4l-1.2.6c-.4.3-.7.6-1.1 1l-3.1 3.1c-.4.4-.7.7-.9 1.1-.2.4-.4.7-.5 1.1-.1.4-.2.8-.2 1.2 0 .4 0 .9.1 1.4l2 13.3.3 1.5c.1.4.3.9.6 1.2.2.4.5.8.9 1.1.4.4.8.7 1.3 1.1l4.1 3.2c.5.4 1 .7 1.4 1 .5.3.9.5 1.4.7.5.2 1 .3 1.5.4.5.1 1.1.1 1.8.1h11c.7 0 1.3 0 1.8-.1s1-.2 1.4-.4c.4-.2.8-.4 1.2-.7.4-.3.7-.6 1.1-1l3.1-3.2c.4-.4.7-.7.9-1.1.2-.4.4-.7.5-1.1.1-.4.2-.8.2-1.2 0-.4-.1-.9-.2-1.5l-2.4-13.3c-.1-.5-.2-1-.4-1.4l-.6-1.2c-.2-.4-.5-.7-.9-1.1-.4-.4-.8-.7-1.3-1.1l-4.1-3.1c-.5-.4-1-.7-1.4-1-.5-.3-.9-.5-1.4-.6-.5-.2-.9-.3-1.5-.4-.4-.1-1-.1-1.6-.1M786.3 166.3h-6.6c-.3 0-.5 0-.8.1-.2.1-.4.1-.5.3-.1.1-.2.3-.2.5v.6l3.2 15.7v.1s0 .1-.1.1c0 0-.1 0-.1.1s-.1 0-.1 0h-.1-.1s-.1 0-.1-.1-.1 0-.1-.1l-13.4-15.9c-.2-.2-.4-.5-.6-.6-.2-.2-.4-.3-.7-.4-.2-.1-.5-.2-.7-.2-.3-.1-.6-.1-.9-.1h-6.7c-.3 0-.5 0-.7.1-.2.1-.4.1-.5.3-.1.1-.2.3-.2.5v.6l5.6 30.6c0 .3.1.5.2.7.1.2.2.3.4.5l.6.3c.2.1.5.1.8.1h6.7c.3 0 .6 0 .8-.1.2-.1.4-.2.5-.3.1-.1.2-.3.2-.5v-.7l-3.1-16.1v-.1s0-.1.1-.1.1 0 .1-.1.1 0 .1 0h.2s.1 0 .1.1c0 0 .1 0 .1.1l13.6 16.3c.2.3.4.5.6.7.2.2.4.3.7.4.2.1.5.2.8.2.3.1.6.1.9.1h6.8c.3 0 .5 0 .7-.1s.4-.2.5-.3c.1-.1.2-.3.2-.5v-.7l-6.4-30.6c-.1-.2-.1-.5-.2-.6-.1-.2-.2-.3-.4-.5l-.6-.3c0-.1-.3-.1-.6-.1"/></g><g><defs><path id="c" d="M247.9 196.3l7-33.6H788l7 33.6z"/></defs><clipPath id="d"><use xlink:href="#c" overflow="visible"/></clipPath><g fill="#FFF" clip-path="url(#d)"><path d="M281.5 162.7h-24.9c-.3 0-.5 0-.8.1-.2.1-.4.1-.6.3-.2.1-.3.3-.4.5-.1.2-.2.4-.2.6l-6.4 30.6c-.1.3-.1.5 0 .7 0 .2.1.3.2.5.1.1.3.2.5.3.2.1.5.1.7.1h25.5c.3 0 .6 0 .8-.1l.6-.3c.2-.1.3-.3.4-.5.1-.2.2-.4.2-.7l.9-4.8c0-.3.1-.5 0-.7 0-.2-.1-.3-.2-.5-.1-.1-.3-.2-.5-.3s-.5-.1-.7-.1h-16.3c-.1 0-.1 0-.2-.1l-.1-.1v-.2l.9-4.7c0-.1 0-.2.1-.2s.1-.1.1-.1c.1 0 .1-.1.2-.1h13.8c.3 0 .6 0 .8-.1l.6-.3c.2-.1.3-.3.4-.5.1-.2.2-.4.2-.7l.9-4.5c0-.3.1-.5 0-.7 0-.2-.1-.3-.2-.5-.1-.1-.3-.2-.5-.3-.2-.1-.5-.1-.7-.1h-13.7c-.1 0-.1 0-.2-.1l-.1-.1v-.2l.8-4c0-.1 0-.2.1-.2 0-.1.1-.1.1-.1.1 0 .1-.1.2-.1h16.1c.3 0 .5 0 .8-.1l.6-.3c.2-.1.3-.3.4-.5.1-.2.2-.4.2-.6l.9-4.6c0-.2.1-.5 0-.6 0-.2-.1-.3-.2-.5-.1-.1-.3-.2-.5-.3s-.3-.2-.6-.2M295.6 188.5h-.2c-.1 0-.1 0-.2-.1s-.1-.1-.1-.2v-.2l3-17.4c0-.1 0-.2.1-.2 0-.1.1-.1.1-.1s.1-.1.2-.1h8.4c.2 0 .4.1.6.1.2.1.3.1.5.2s.3.2.5.4l1 1 .4.4c.1.1.2.3.2.4 0 .2.1.3.1.5s0 .4-.1.6l-1.8 10.6c0 .2-.1.5-.2.6-.1.2-.1.4-.2.5-.1.2-.2.3-.4.4-.1.1-.3.3-.5.4l-1.3 1c-.2.2-.4.3-.6.4l-.6.3c-.2.1-.4.1-.6.1H295.6m14.9-25.4h-19.6c-.3 0-.5 0-.8.1-.2.1-.4.1-.6.3-.2.1-.3.3-.4.5-.1.2-.2.4-.2.6l-5.6 30.6c0 .3-.1.5 0 .7 0 .2.1.3.2.5.1.1.3.2.5.3.2.1.5.1.8.1H305c.7 0 1.3 0 1.8-.1s1-.2 1.5-.4.9-.4 1.4-.7c.5-.3.9-.6 1.5-1l4.1-3.2c.5-.4.9-.7 1.3-1.1.4-.4.6-.7.9-1.1l.6-1.2c.1-.4.3-.9.3-1.5l2.1-13.3c.1-.5.1-1 .1-1.4 0-.4-.1-.8-.2-1.2-.1-.4-.3-.7-.5-1.1-.2-.4-.5-.7-.9-1.1l-3.1-3.1c-.4-.4-.7-.7-1.1-1-.4-.3-.7-.5-1.2-.6-.4-.2-.9-.3-1.4-.4-.4-.2-1-.2-1.7-.2M357.3 162.7h-6.9c-.3 0-.5 0-.8.1s-.4.1-.6.3c-.2.1-.3.3-.4.5-.1.2-.2.4-.2.6l-2.7 20.3c0 .2-.1.4-.1.6-.1.2-.1.4-.2.5-.1.2-.2.3-.3.4-.1.1-.3.3-.5.4l-1.3 1c-.2.2-.4.3-.6.4l-.6.3c-.2.1-.4.1-.6.1h-3.8c-.2 0-.4-.1-.6-.1-.2-.1-.3-.1-.5-.3-.2-.1-.3-.2-.5-.4l-1-1-.4-.4c-.1-.1-.2-.3-.2-.4-.1-.2-.1-.3-.1-.5v-.6l2.9-20.3v-.6c0-.2-.1-.3-.2-.5-.1-.1-.3-.2-.5-.3-.2-.1-.5-.1-.7-.1H329c-.3 0-.5 0-.8.1-.2.1-.4.1-.6.3-.2.1-.3.3-.4.5-.1.2-.2.4-.2.6l-3.3 21.8c-.1.5-.1 1-.1 1.5 0 .4.1.9.2 1.2.1.4.3.8.5 1.1.2.4.5.7.9 1.1l3.2 3.2c.4.4.8.7 1.1 1 .4.3.8.5 1.2.7.4.2.9.3 1.4.4.5.1 1.1.1 1.8.1h8.9c.7 0 1.3 0 1.8-.1s1-.2 1.5-.4.9-.4 1.4-.7c.5-.3.9-.6 1.4-1l4-3.2c.5-.4.9-.7 1.2-1.1.3-.4.6-.7.8-1.1.2-.4.4-.8.5-1.2.1-.4.2-.9.3-1.5l2.8-21.8v-.6c0-.2-.1-.3-.3-.5-.1-.1-.3-.2-.5-.3s-.1-.1-.4-.1M389.9 162.7h-14.1c-.7 0-1.2 0-1.8.1-.5.1-1 .2-1.5.4s-.9.4-1.3.6c-.4.3-.9.6-1.4 1l-3.9 3.1c-.5.4-.9.7-1.2 1.1-.3.4-.6.7-.8 1.1-.2.4-.4.8-.5 1.2-.1.4-.2.9-.3 1.4l-1.6 13.3c-.1.5-.1 1-.1 1.5 0 .4.1.9.2 1.2.1.4.3.8.6 1.1.3.4.6.7 1 1.1l3.3 3.2c.4.4.8.7 1.2 1 .4.3.8.5 1.2.7.4.2.9.3 1.4.4.5.1 1.1.1 1.8.1h14.5c.3 0 .6 0 .8-.1l.6-.3c.2-.1.3-.3.4-.5.1-.2.1-.4.2-.7l.5-4.8v-.7c-.1-.2-.1-.3-.3-.5-.1-.1-.3-.2-.5-.3-.2-.1-.5-.1-.8-.1h-12.2c-.2 0-.4-.1-.6-.2-.2-.1-.3-.2-.5-.3-.2-.1-.3-.2-.5-.4l-.9-.9-.4-.4c-.1-.1-.2-.3-.2-.4-.1-.2-.1-.3-.1-.5v-.6l1.2-10.6c0-.2.1-.4.1-.6.1-.2.1-.3.2-.5s.2-.3.3-.4c.1-.1.3-.3.5-.4l1.1-.8c.2-.2.4-.3.6-.4.2-.1.4-.2.5-.3s.4-.1.6-.1H389.1c.3 0 .5 0 .8-.1l.6-.3c.2-.1.3-.3.4-.5.1-.2.1-.4.2-.6l.5-4.6v-.6c-.1-.2-.1-.3-.3-.5-.1-.1-.3-.2-.5-.3-.3-.3-.6-.3-.9-.3M407.3 181.6h-.2l-.1-.1v-.1-.2l4.1-11.1s0-.1.1-.1l.1-.1h.4s.1 0 .1.1v.1l2.2 11.1v.2c0 .1 0 .1-.1.1l-.1.1h-6.5m10.2-18.9h-10.9c-.5 0-.9 0-1.3.1s-.6.2-.9.3c-.2.1-.4.3-.6.6-.2.2-.3.5-.5.9l-12 29.9c-.1.3-.1.5-.1.7 0 .2 0 .4.2.6.1.2.3.3.5.4.2.1.5.1.9.1h7c.3 0 .6 0 .8-.1l.6-.3c.2-.1.3-.3.5-.5.1-.2.3-.5.4-.9l1.9-5.1c0-.1.1-.2.1-.2 0-.1.1-.1.1-.1.1 0 .1-.1.2-.1h10.8c.1 0 .1 0 .2.1l.1.1c0 .1.1.1.1.2l1 5.1.3.9c.1.2.2.4.4.5.2.1.3.2.6.3s.5.1.8.1h7c.4 0 .6 0 .9-.1.2-.1.4-.2.5-.4.1-.2.2-.3.2-.6v-.7l-6.8-29.9c-.1-.4-.2-.6-.3-.9-.1-.2-.3-.4-.5-.6-.2-.1-.5-.2-.8-.3-.5-.1-1-.1-1.4-.1M461.7 162.7h-28.2c-.3 0-.5 0-.8.1s-.4.1-.5.3c-.1.1-.3.3-.3.5-.1.2-.1.4-.1.6l-.3 4.6c0 .2 0 .5.1.6.1.2.2.3.3.5.1.1.3.2.5.3.2.1.5.1.8.1h8.7c.1 0 .1 0 .2.1l.1.1v.2l-1.5 24c0 .3 0 .5.1.7.1.2.2.3.3.5.1.1.3.2.5.3s.5.1.8.1h7.1c.3 0 .6 0 .8-.1l.6-.3c.2-.1.3-.3.3-.5.1-.2.1-.4.1-.7l1.3-24v-.2c0-.1.1-.1.1-.1s.1-.1.2-.1h8.8c.3 0 .5 0 .8-.1.2-.1.4-.2.5-.3.1-.1.3-.3.3-.5.1-.2.1-.4.1-.6l.2-4.6c0-.2 0-.5-.1-.6-.1-.2-.2-.3-.3-.5-.1-.1-.3-.2-.5-.3-.5-.1-.8-.1-1-.1M477.1 162.7h-6.9c-.3 0-.5 0-.8.1-.2.1-.4.1-.5.3-.1.1-.3.3-.3.5-.1.2-.1.4-.1.6l-1.3 30.6c0 .3 0 .5.1.7.1.2.2.3.3.5.1.1.3.2.5.3.2.1.5.1.8.1h7.1c.3 0 .6 0 .8-.1.2-.1.4-.2.5-.3.1-.1.3-.3.3-.5.1-.2.1-.4.1-.7l1-30.6c0-.2 0-.5-.1-.6-.1-.2-.2-.3-.3-.5-.1-.1-.3-.2-.5-.3-.1-.1-.4-.1-.7-.1M499.2 188.5h-.7c-.2 0-.4-.1-.6-.1-.2-.1-.3-.1-.5-.3-.2-.1-.3-.2-.5-.4l-1.1-1-.4-.4c-.1-.1-.2-.3-.3-.4-.1-.2-.1-.3-.1-.5v-.6l.2-10.6c0-.2 0-.4.1-.6 0-.2.1-.3.2-.5s.2-.3.3-.4c.1-.1.3-.3.5-.4l1.2-1c.2-.2.4-.3.5-.4.2-.1.3-.2.5-.2.2-.1.4-.1.6-.1H504.9c.2 0 .4.1.6.1.2.1.3.1.5.2s.3.2.5.4l1.2 1 .4.4c.1.1.2.3.3.4.1.2.1.3.1.5v.6l-.1 10.6c0 .2 0 .5-.1.6 0 .2-.1.4-.2.5-.1.2-.2.3-.3.4-.1.1-.3.3-.5.4l-1.2 1c-.2.2-.4.3-.5.4-.2.1-.3.2-.5.3s-.4.1-.6.1h-5.3m8-25.8h-10.7c-.7 0-1.2 0-1.8.1-.5.1-1 .2-1.4.4-.4.2-.9.4-1.3.6-.4.3-.8.6-1.3 1l-3.6 3.1c-.4.4-.8.7-1.1 1.1-.3.4-.5.7-.7 1.1-.2.4-.3.8-.4 1.2-.1.4-.1.9-.2 1.4l-.4 13.3c0 .5 0 1 .1 1.5.1.4.2.9.3 1.2.2.4.4.8.7 1.1.3.4.6.7 1.1 1.1l3.6 3.2c.4.4.9.7 1.3 1 .4.3.8.5 1.3.7.4.2.9.3 1.5.4.5.1 1.1.1 1.8.1h11c.7 0 1.3 0 1.8-.1s1-.2 1.5-.4c.4-.2.9-.4 1.3-.7.4-.3.8-.6 1.3-1l3.7-3.2c.4-.4.8-.7 1.1-1.1.3-.4.5-.7.7-1.1.2-.4.3-.8.4-1.2.1-.4.1-.9.1-1.5v-13.3c0-.5 0-1-.1-1.4-.1-.4-.2-.8-.4-1.2-.2-.4-.4-.7-.7-1.1-.3-.4-.6-.7-1.1-1.1l-3.5-3.1c-.4-.4-.8-.7-1.2-1-.4-.3-.8-.5-1.3-.6-.4-.2-.9-.3-1.4-.4-.8-.1-1.3-.1-2-.1M554.7 162.7h-6.6c-.3 0-.6 0-.8.1s-.4.1-.5.3c-.1.1-.2.3-.3.5-.1.2-.1.4-.1.6l.3 15.7v.1s0 .1-.1.1c0 0-.1 0-.1.1h-.1-.1-.1s-.1 0-.1-.1 0 0-.1-.1l-10.5-15.9c-.2-.2-.3-.5-.5-.6-.2-.2-.4-.3-.6-.4-.2-.1-.4-.2-.7-.2-.3-.1-.6-.1-.9-.1h-6.7c-.3 0-.5 0-.7.1s-.4.1-.5.3c-.1.1-.2.3-.3.5-.1.2-.1.4-.1.6l.1 30.6c0 .3 0 .5.1.7.1.2.2.3.3.5.1.1.3.2.5.3.2.1.5.1.8.1h6.7c.3 0 .6 0 .8-.1.2-.1.4-.2.5-.3.1-.1.2-.3.3-.5.1-.2.1-.4.1-.7l-.2-16.1v-.1s0-.1.1-.1.1 0 .1-.1H535s.1 0 .1.1l.1.1 10.6 16.3c.2.3.3.5.5.7.2.2.4.3.6.4.2.1.5.2.7.2s.6.1.9.1h6.8c.3 0 .5 0 .8-.1.2-.1.4-.2.5-.3.1-.1.2-.3.3-.5.1-.2.1-.4.1-.7l-.8-30.6c0-.2 0-.5-.1-.6-.1-.2-.2-.3-.3-.5-.1-.1-.3-.2-.5-.3s-.3-.1-.6-.1M601.2 162.7h-24.9c-.3 0-.5 0-.7.1-.2.1-.4.1-.5.3-.1.1-.2.3-.3.5-.1.2-.1.4-.1.6l1.3 30.6c0 .3.1.5.1.7.1.2.2.3.3.5.1.1.3.2.6.3.2.1.5.1.8.1h25.5c.3 0 .5 0 .8-.1s.4-.2.5-.3c.1-.1.2-.3.3-.5.1-.2.1-.4.1-.7l-.3-4.8c0-.3-.1-.5-.1-.7-.1-.2-.2-.3-.4-.5-.2-.1-.3-.2-.6-.3s-.5-.1-.8-.1H586.4c-.1 0-.1 0-.2-.1l-.1-.1v-.2l-.2-4.7v-.2c0-.1 0-.1.1-.1 0 0 .1-.1.2-.1H600c.3 0 .5 0 .8-.1.2-.1.4-.2.5-.3.1-.1.2-.3.3-.5.1-.2.1-.4.1-.7l-.3-4.5c0-.3-.1-.5-.1-.7-.1-.2-.2-.3-.3-.5-.1-.1-.3-.2-.5-.3-.2-.1-.5-.1-.8-.1H586c-.1 0-.1 0-.2-.1l-.1-.1v-.2l-.2-4v-.2c0-.1 0-.1.1-.1 0 0 .1-.1.2-.1h16c.3 0 .5 0 .7-.1.2-.1.4-.2.5-.3.1-.1.2-.3.3-.5.1-.2.1-.4.1-.6l-.3-4.6c0-.2-.1-.5-.1-.6-.1-.2-.2-.3-.3-.5-.1-.1-.3-.2-.5-.3-.5-.2-.7-.2-1-.2M621.7 188.5h-.3c-.1 0-.1 0-.2-.1s-.1-.1-.1-.2v-.2l-1.3-17.4v-.2c0-.1 0-.1.1-.1 0 0 .1-.1.2-.1h8.3c.2 0 .4.1.6.1.2.1.4.1.5.2.2.1.4.2.5.4l1.2 1c.2.2.4.3.5.4.1.1.2.3.3.4.1.2.2.3.2.5s.1.4.1.6l.9 10.6v.6c0 .2-.1.4-.1.5-.1.2-.1.3-.3.4-.1.1-.2.3-.4.4l-1.1 1c-.2.2-.3.3-.5.4-.2.1-.3.2-.5.3-.2.1-.4.1-.6.1h-8m8.5-25.4h-19.6c-.3 0-.5 0-.7.1s-.4.1-.5.3c-.1.1-.2.3-.3.5-.1.2-.1.4-.1.6l2.1 30.6c0 .3.1.5.2.7.1.2.2.3.4.5.2.1.3.2.6.3.2.1.5.1.8.1h20.1c.7 0 1.3 0 1.8-.1s1-.2 1.4-.4c.4-.2.8-.4 1.2-.7.4-.3.8-.6 1.2-1l3.3-3.2c.4-.4.7-.7 1-1.1.3-.4.5-.7.6-1.1l.3-1.2v-1.5l-1.3-13.3c-.1-.5-.1-1-.2-1.4-.1-.4-.3-.8-.5-1.2-.2-.4-.5-.7-.8-1.1-.3-.4-.7-.7-1.2-1.1l-3.8-3.1c-.5-.4-.9-.7-1.3-1-.4-.3-.9-.5-1.3-.6-.5-.2-.9-.3-1.5-.4-.6-.2-1.2-.2-1.9-.2M656.5 162.7h-6.9c-.3 0-.5 0-.7.1s-.4.1-.5.3c-.1.1-.2.3-.3.5-.1.2-.1.4 0 .6l3 30.6c0 .3.1.5.2.7.1.2.2.3.4.5.2.1.3.2.6.3.2.1.5.1.8.1h7.1c.3 0 .5 0 .8-.1s.4-.2.5-.3c.1-.1.2-.3.3-.5.1-.2.1-.4 0-.7l-3.3-30.6c0-.2-.1-.5-.2-.6-.1-.2-.2-.3-.4-.5-.2-.1-.3-.2-.6-.3s-.5-.1-.8-.1M693.3 162.7h-28.2c-.3 0-.5 0-.7.1s-.4.1-.5.3c-.1.1-.2.3-.3.5 0 .2-.1.4 0 .6l.5 4.6c0 .2.1.5.2.6.1.2.2.3.4.5.2.1.3.2.6.3.2.1.5.1.8.1h8.8c.1 0 .1 0 .2.1l.1.1c0 .1 0 .1.1.2l2.9 24c0 .3.1.5.2.7.1.2.2.3.4.5.2.1.3.2.6.3.2.1.5.1.8.1h7.1c.3 0 .5 0 .8-.1.2-.1.4-.2.5-.3.1-.1.2-.3.3-.5 0-.2.1-.4 0-.7l-3.1-24v-.2c0-.1 0-.1.1-.1 0 0 .1-.1.2-.1h8.7c.3 0 .5 0 .7-.1.2-.1.4-.2.5-.3.1-.1.2-.3.3-.5v-.6l-.6-4.6c0-.2-.1-.5-.2-.6-.1-.2-.2-.3-.4-.5-.2-.1-.3-.2-.6-.3-.7-.1-.9-.1-1.2-.1M708.7 162.7h-6.9c-.3 0-.5 0-.7.1s-.4.1-.5.3c-.1.1-.2.3-.2.5v.6l4.3 30.6c0 .3.1.5.2.7.1.2.2.3.4.5l.6.3c.2.1.5.1.8.1h7.1c.3 0 .5 0 .8-.1.2-.1.4-.2.5-.3.1-.1.2-.3.3-.5v-.7l-4.5-30.6c0-.2-.1-.5-.2-.6-.1-.2-.2-.3-.4-.5-.2-.1-.3-.2-.6-.3s-.7-.1-1-.1M735.6 188.5h-.7c-.2 0-.4-.1-.6-.1s-.4-.1-.6-.3c-.2-.1-.4-.2-.6-.4l-1.3-1c-.2-.2-.4-.3-.5-.4l-.4-.4c-.1-.2-.2-.3-.2-.5-.1-.2-.1-.4-.1-.6l-1.7-10.6c0-.2-.1-.4-.1-.6 0-.2 0-.3.1-.5 0-.2.1-.3.2-.4.1-.1.2-.3.4-.4l1-1c.2-.2.3-.3.5-.4.2-.1.3-.2.5-.2.2-.1.3-.1.6-.1H737.9c.2 0 .4.1.6.1s.4.1.6.2c.2.1.4.2.6.4l1.3 1c.2.2.4.3.5.4l.4.4c.1.2.2.3.2.5.1.2.1.4.2.6l1.8 10.6c0 .2.1.5.1.6 0 .2 0 .4-.1.5 0 .2-.1.3-.2.4-.1.1-.2.3-.4.4l-1 1c-.2.2-.3.3-.5.4-.2.1-.3.2-.5.3-.2.1-.4.1-.6.1h-5.3m3.3-25.8h-10.7c-.7 0-1.2 0-1.7.1s-1 .2-1.4.4l-1.2.6c-.4.3-.7.6-1.1 1l-3.1 3.1c-.4.4-.7.7-.9 1.1-.2.4-.4.7-.5 1.1-.1.4-.2.8-.2 1.2 0 .4 0 .9.1 1.4l2 13.3.3 1.5c.1.4.3.9.6 1.2.2.4.5.8.9 1.1.4.4.8.7 1.3 1.1l4.1 3.2c.5.4 1 .7 1.4 1 .5.3.9.5 1.4.7.5.2 1 .3 1.5.4.5.1 1.1.1 1.8.1h11c.7 0 1.3 0 1.8-.1s1-.2 1.4-.4c.4-.2.8-.4 1.2-.7.4-.3.7-.6 1.1-1l3.1-3.2c.4-.4.7-.7.9-1.1.2-.4.4-.7.5-1.1.1-.4.2-.8.2-1.2 0-.4-.1-.9-.2-1.5l-2.4-13.3c-.1-.5-.2-1-.4-1.4l-.6-1.2c-.2-.4-.5-.7-.9-1.1-.4-.4-.8-.7-1.3-1.1l-4.1-3.1c-.5-.4-1-.7-1.4-1-.5-.3-.9-.5-1.4-.6-.5-.2-.9-.3-1.5-.4-.4-.1-1-.1-1.6-.1M786.3 162.7h-6.6c-.3 0-.5 0-.8.1s-.4.1-.5.3c-.1.1-.2.3-.2.5v.6l3.2 15.7v.1s0 .1-.1.1c0 0-.1 0-.1.1s-.1 0-.1 0h-.1-.1s-.1 0-.1-.1-.1 0-.1-.1l-13.4-15.9c-.2-.2-.4-.5-.6-.6-.2-.2-.4-.3-.7-.4-.2-.1-.5-.2-.7-.2-.3-.1-.6-.1-.9-.1h-6.7c-.3 0-.5 0-.7.1s-.4.1-.5.3c-.1.1-.2.3-.2.5v.6l5.6 30.6c0 .3.1.5.2.7.1.2.2.3.4.5l.6.3c.2.1.5.1.8.1h6.7c.3 0 .6 0 .8-.1.2-.1.4-.2.5-.3.1-.1.2-.3.2-.5v-.7l-3.1-16.1v-.1s0-.1.1-.1c0 0 .1 0 .1-.1H769.5s.1 0 .1.1c0 0 .1 0 .1.1l13.6 16.3c.2.3.4.5.6.7.2.2.4.3.7.4.2.1.5.2.8.2.3.1.6.1.9.1h6.8c.3 0 .5 0 .7-.1s.4-.2.5-.3c.1-.1.2-.3.2-.5v-.7l-6.4-30.6c-.1-.2-.1-.5-.2-.6-.1-.2-.2-.3-.4-.5l-.6-.3c0-.1-.3-.1-.6-.1"/></g></g></g></svg>