<svg xmlns="http://www.w3.org/2000/svg" viewBox="0 0 605.295 509.244"><path d="M585.295 0H20.091A20 20 0 00.092 19.995L0 489.241a20 20 0 0020 20.003h565.295a20 20 0 0020-20V20a20 20 0 00-20-19.999z" fill="#ef323d"/><g fill="#fff"><path d="M163.52 419.067h-44.1a2.025 2.025 0 00-2.026 2.025v10.111a2.025 2.025 0 002.025 2.026h12.102a2.025 2.025 0 012.025 2.025v35.986a2.025 2.025 0 002.026 2.025h11.795a2.025 2.025 0 002.026-2.025v-35.986a2.025 2.025 0 012.025-2.025h12.101a2.025 2.025 0 002.026-2.026v-10.111a2.025 2.025 0 00-2.026-2.025zM309.375 419.067h-16.883a2.025 2.025 0 00-2.025 2.025v50.148a2.025 2.025 0 002.025 2.025h16.806c19.138 0 31.08-10.411 31.08-27.252 0-16.535-11.482-26.946-31.003-26.946zm-.787 40.342h-.742a2.042 2.042 0 01-2.058-2.025v-22.436a2.042 2.042 0 012.058-2.026h.898c10.27 0 15.482 3.981 15.482 13.09 0 9.417-5.213 13.397-15.638 13.397z"/><rect x="379.85" y="419.067" width="16.209" height="54.198" rx="2.025"/><path d="M248.948 419.067h-11.566a2.025 2.025 0 00-2.025 2.025v26.911c0 9.033-2.45 12.172-8.497 12.172-6.048 0-8.498-3.139-8.498-12.172v-26.911a2.025 2.025 0 00-2.025-2.025h-11.566a2.025 2.025 0 00-2.025 2.025v28.442c0 16.612 7.425 25.186 24.114 25.186 16.228 0 24.113-9.033 24.113-25.263v-28.365a2.025 2.025 0 00-2.025-2.025zM67.6 440.5c-1.674-.717-6.278-2.628-6.909-2.833-4.476-1.454-4.688-3.582-3.944-5.63s3.758-2.96 6.638-1.79c1.546.63 5.383 4.108 5.8 4.516a2.132 2.132 0 001.059.67 1.812 1.812 0 001.457-.321l8.433-6.295a1.822 1.822 0 00.315-2.617c-4.59-5.547-11.244-8.588-19.126-8.588-11.636 0-20.286 7.043-20.286 16.152 0 7.957 3.556 12.66 12.88 16.712 2.411.851 5.515 2.119 6.757 2.484 5.432 1.598 5.64 4.31 4.745 6.775s-4.507 3.523-7.987 2.151c-2.428-.957-6.232-4.632-6.497-5a1.818 1.818 0 00-.99-.601l-.027-.006a1.812 1.812 0 00-1.41.287l-8.486 5.922a1.821 1.821 0 00-.4 2.604c4.909 6.347 12.1 9.704 20.476 9.704 12.478 0 21.358-7.732 21.358-18.22 0-6.889-3.751-11.788-13.856-16.075zM463.18 417.612a28.553 28.553 0 1028.554 28.553 28.553 28.553 0 00-28.553-28.553zm0 41.295a12.742 12.742 0 1112.743-12.742 12.757 12.757 0 01-12.742 12.742zM553.663 440.5c-1.675-.717-6.278-2.628-6.91-2.833-4.476-1.454-4.688-3.582-3.944-5.63s3.759-2.96 6.639-1.79c1.546.63 5.382 4.108 5.8 4.516a2.132 2.132 0 001.059.67 1.812 1.812 0 001.457-.321l8.433-6.295a1.822 1.822 0 00.315-2.617c-4.591-5.547-11.244-8.588-19.126-8.588-11.636 0-20.287 7.043-20.287 16.152 0 7.957 3.557 12.66 12.88 16.712 2.412.851 5.516 2.119 6.758 2.484 5.432 1.598 5.64 4.31 4.745 6.775s-4.507 3.523-7.987 2.151c-2.429-.957-6.232-4.632-6.497-5a1.818 1.818 0 00-.99-.601l-.027-.006a1.812 1.812 0 00-1.41.287l-8.487 5.922a1.821 1.821 0 00-.399 2.604c4.908 6.347 12.1 9.704 20.476 9.704 12.477 0 21.358-7.732 21.358-18.22 0-6.889-3.752-11.788-13.856-16.075z"/><g><path d="M314.04 37.968a81.997 81.997 0 1081.996 81.997 81.997 81.997 0 00-81.997-81.997zm0 121.995a39.999 39.999 0 1139.998-39.998 40.044 40.044 0 01-39.999 39.998zM561.297 39.967H449.3a4 4 0 00-4 4v32a4 4 0 004 3.999h75.997v69.997a10 10 0 01-10 10H485.3a40.054 40.054 0 01-39.84-36.413 3.964 3.964 0 00-3.962-3.585H409.42a3.978 3.978 0 00-4.009 4.182 80 80 0 0079.89 75.815h35.998a4 4 0 004-4v-16a20 20 0 0120-20l15.999.001a4 4 0 004-4V43.967a4 4 0 00-4-4zM200.815 79.966a20 20 0 01-20-20.039l.032-15.96a4 4 0 00-4-4H44.852a4 4 0 00-4 4v151.995a4 4 0 004 4h32a4 4 0 003.999-4V89.96a10 10 0 0110-10h10a10 10 0 019.999 10v65.9a4 4 0 004 4h31.999a4 4 0 004-4v-65.9a10 10 0 0110-10h9.954a10 10 0 0110 9.995l.044 106.006a4 4 0 004 4h31.999a4 4 0 004-4V83.966a4 4 0 00-4-4zM229.412 219.985h111.996a4 4 0 014 4v15.978a20 20 0 0019.973 20l16.026.02a4 4 0 014 4V375.98a4 4 0 01-4 4h-31.999a4 4 0 01-4-4V269.983a10 10 0 00-9.993-10h-60.01a10 10 0 00-9.994 10v105.996a4 4 0 01-4 4h-31.999a4 4 0 01-4-4V223.985a4 4 0 014-4zM196.847 259.984l-16.078-.063a20 20 0 01-19.921-20v-15.936a4 4 0 00-4-4H120.85a79.997 79.997 0 00-79.998 79.997v75.997a4 4 0 004 4h32a4 4 0 003.999-4v-75.997a39.999 39.999 0 0139.999-39.998h30.005a10 10 0 019.993 9.999v19.999a10 10 0 01-10 10H106.85a4 4 0 00-4 4v31.999a4 4 0 004 4h44.005a10 10 0 019.993 9.999v26a4 4 0 004 4h31.999a4 4 0 004-4V263.982a4 4 0 00-4-4zM484.173 259.985h77.125a4 4 0 004-4v-32a4 4 0 00-4-4h-77.054c-34.27 0-65.04 22.002-75.086 54.766-16.39 53.454 21.645 102.542 71.968 105.127a3.977 3.977 0 004.172-4.01v-25.884a10 10 0 019.994-10h20.012a10 10 0 019.994 10v26.001a4 4 0 004 4h32a4 4 0 004-4v-72a4 4 0 00-4-4h-72a4 4 0 00-4 4v21.128a11.368 11.368 0 01-13.334 11.214 25.856 25.856 0 01-11.424-4.963c-12.943-10.246-19.447-28.285-12.268-46.97a38.382 38.382 0 0135.901-24.41"/></g></g></svg>